<svg xmlns="http://www.w3.org/2000/svg" version="1.1" xmlns:xlink="http://www.w3.org/1999/xlink" xmlns:svgjs="http://svgjs.dev/svgjs" width="1500" height="1500" viewBox="0 0 1500 1500"><rect width="1500" height="1500" fill="#000000"></rect><g transform="matrix(0.6666666666666666,0,0,0.6666666666666666,249.78425655976667,249.78425655976673)"><svg viewBox="0 0 343 343" data-background-color="#ffffff" preserveAspectRatio="xMidYMid meet" height="1500" width="1500" xmlns="http://www.w3.org/2000/svg" xmlns:xlink="http://www.w3.org/1999/xlink"><g id="tight-bounds" transform="matrix(1,0,0,1,0.0740000000000407,0.07400000000001228)"><svg viewBox="0 0 342.85155851775386 342.85155851775386" height="342.85155851775386" width="342.85155851775386"><g><svg></svg></g><g><svg viewBox="0 0 342.85155851775386 342.85155851775386" height="342.85155851775386" width="342.85155851775386"><g><path d="M0 171.426c0-94.676 76.75-171.426 171.426-171.426 94.676 0 171.426 76.75 171.426 171.426 0 94.676-76.75 171.426-171.426 171.426-94.676 0-171.426-76.75-171.426-171.426zM171.426 336.522c91.18 0 165.096-73.916 165.096-165.096 0-91.18-73.916-165.096-165.096-165.096-91.18 0-165.096 73.916-165.096 165.096 0 91.18 73.916 165.096 165.096 165.096z" data-fill-palette-color="tertiary" fill="#ffffff" stroke="transparent"></path><ellipse rx="164.56874808852186" ry="164.56874808852186" cx="171.42577925887693" cy="171.42577925887693" fill="#ffffff" stroke="transparent" stroke-width="0" fill-opacity="1" data-fill-palette-color="tertiary"></ellipse></g><g transform="matrix(1,0,0,1,64.84655864529837,79.54192893680741)"><svg viewBox="0 0 213.1584412271571 183.76770064413904" height="183.76770064413904" width="213.1584412271571"><g><svg viewBox="0 0 213.1584412271571 183.76770064413904" height="183.76770064413904" width="213.1584412271571"><g><svg viewBox="0 0 213.1584412271571 183.76770064413904" height="183.76770064413904" width="213.1584412271571"><g transform="matrix(1,0,0,1,0,113.5758113925898)"><svg viewBox="0 0 213.1584412271571 70.19188925154924" height="70.19188925154924" width="213.1584412271571"><g id="textblocktransform"><svg viewBox="0 0 213.1584412271571 70.19188925154924" height="70.19188925154924" width="213.1584412271571" id="textblock"><g><svg viewBox="0 0 213.1584412271571 70.19188925154924" height="70.19188925154924" width="213.1584412271571"><g transform="matrix(1,0,0,1,0,0)"><svg width="213.1584412271571" viewBox="1.32 -37.94 115.61000000000001 38.070133639992996" height="70.19188925154924" data-palette-color="#ffffff"><path d="M1.32-33.74L2.93-33.5 4.2-17.48Q4.54-17.77 5.08-18.36 5.62-18.95 6.35-19.46 7.08-19.97 7.96-20.34 8.84-20.7 9.86-20.65L9.86-20.65Q11.87-20.46 13.06-19.04 14.26-17.63 14.87-15.58 15.48-13.53 15.67-11.11 15.87-8.69 15.8-6.49 15.72-4.3 15.55-2.59 15.38-0.88 15.28-0.24L15.28-0.24 13.53-0.49Q13.53-0.93 13.55-1.88 13.57-2.83 13.62-4.13 13.67-5.42 13.67-6.84 13.67-8.25 13.7-9.5 13.72-10.74 13.7-11.72 13.67-12.7 13.62-13.09L13.62-13.09Q13.67-14.45 13.09-15.72 12.5-16.99 11.52-17.65 10.55-18.31 9.18-18.09 7.81-17.87 6.25-16.16L6.25-16.16Q4.88-14.11 4.25-12.13 3.61-10.16 3.42-8.23 3.22-6.3 3.27-4.27 3.32-2.25 3.27 0L3.27 0 1.37-0.29Q1.51-0.83 1.59-2.27 1.66-3.71 1.71-5.74 1.76-7.76 1.78-10.25 1.81-12.74 1.78-15.41 1.76-18.07 1.71-20.75 1.66-23.44 1.59-25.88 1.51-28.32 1.44-30.37 1.37-32.42 1.32-33.74L1.32-33.74ZM20.85 0.1L20.11-18.95Q20.7-18.95 21.12-18.99 21.53-19.04 21.82-18.51L21.82-18.51Q21.97-16.31 22.17-14.04 22.36-11.77 22.56-9.47 22.75-7.18 22.82-4.86 22.9-2.54 22.85-0.34L22.85-0.34Q22.85-0.05 22.7 0.02 22.56 0.1 22.29 0.07 22.02 0.05 21.65 0.02 21.29 0 20.85 0.1L20.85 0.1ZM17.28-27.69L17.28-27.69Q17.28-28.03 17.33-28.44 17.38-28.86 17.55-29.2 17.72-29.54 17.99-29.79 18.26-30.03 18.65-30.03L18.65-30.03Q19.24-30.03 19.82-29.98 20.41-29.93 20.94-29.76 21.48-29.59 21.82-29.22 22.17-28.86 22.17-28.17L22.17-28.17Q22.17-27 21.29-26.1 20.41-25.2 19.14-25.2L19.14-25.2Q18.16-25.2 17.72-25.95 17.28-26.71 17.28-27.69ZM20.11-27.44L20.11-27.44Q19.97-27.44 19.97-27.2 19.97-26.95 20.11-26.95L20.11-26.95Q20.31-26.95 20.31-27.2 20.31-27.44 20.11-27.44ZM38.67-12.21L34.13-0.63 24.6-22.46 25.87-23.78 33.98-5.62 37.69-17.58 47.11-4.69Q47.55-7.08 47.68-9.5 47.8-11.91 47.77-14.33 47.75-16.75 47.72-19.24 47.7-21.73 47.85-24.22L47.85-24.22 49.95-23.44Q49.95-19.78 49.95-17.24 49.95-14.7 49.95-12.96 49.95-11.23 49.92-10.16 49.9-9.08 49.87-8.3 49.85-7.52 49.75-6.86 49.65-6.2 49.51-5.4 49.36-4.59 49.16-3.42 48.97-2.25 48.68-0.34L48.68-0.34Q47.16-1.51 45.75-3.27 44.33-5.03 43.09-6.79 41.84-8.54 40.72-10.03 39.59-11.52 38.67-12.21L38.67-12.21ZM52.53-4.2L52.53-4.2Q52.53-6.98 54.07-8.25 55.61-9.52 58.1-9.52L58.1-9.52Q59.07-9.52 59.93-9.47 60.78-9.42 61.56-9.23 62.35-9.03 63.1-8.64 63.86-8.25 64.69-7.52L64.69-7.52Q64.69-7.67 64.71-8.13 64.74-8.59 64.74-9.13 64.74-9.67 64.74-10.13 64.74-10.6 64.74-10.79L64.74-10.79Q64.69-11.67 64.69-13.06 64.69-14.45 64.47-15.92 64.25-17.38 63.59-18.7 62.93-20.02 61.47-20.7L61.47-20.7Q60.44-20.7 59.56-20.36 58.68-20.02 57.8-19.63 56.93-19.24 56.05-18.92 55.17-18.6 54.14-18.6L54.14-18.6Q54.14-19.82 54.9-20.63 55.66-21.44 56.73-21.88 57.8-22.31 58.98-22.46 60.15-22.61 61.03-22.61L61.03-22.61Q61.91-22.46 62.66-22.27 63.42-22.07 64.08-21.48 64.74-20.9 65.3-19.7 65.86-18.51 66.28-16.36 66.69-14.21 67.01-10.91 67.33-7.62 67.52-2.83L67.52-2.83Q67.62-2.2 67.11-1.73 66.59-1.27 65.72-0.95 64.84-0.63 63.74-0.42 62.64-0.2 61.52-0.1 60.39 0 59.37 0.05 58.34 0.1 57.66 0.1L57.66 0.1Q56.78 0.1 55.88-0.2 54.97-0.49 54.22-1.05 53.46-1.61 53-2.42 52.53-3.22 52.53-4.2ZM58.88-7.62L58.88-7.62Q56.44-6.93 55.46-5.98 54.48-5.03 54.61-4.15 54.73-3.27 55.75-2.56 56.78-1.86 58.24-1.64 59.71-1.42 61.42-1.88 63.13-2.34 64.69-3.71L64.69-3.71Q64.1-5.13 63.52-5.88 62.93-6.64 62.25-7.03 61.56-7.42 60.73-7.52 59.9-7.62 58.88-7.62ZM70.64-37.94L70.64-37.94Q71.33-37.84 71.84-37.57 72.35-37.3 72.65-36.62L72.65-36.62Q72.65-35.69 72.72-34.06 72.79-32.42 72.87-30.27 72.94-28.13 73.04-25.63 73.13-23.14 73.23-20.61 73.33-18.07 73.4-15.58 73.48-13.09 73.55-10.94 73.62-8.79 73.67-7.13 73.72-5.47 73.77-4.59L73.77-4.59Q73.77-4.49 73.74-4.25 73.72-4 73.7-3.66 73.67-3.32 73.65-3 73.62-2.69 73.62-2.54L73.62-2.54Q73.57-2.25 73.57-1.83 73.57-1.42 73.48-1.03 73.38-0.63 73.16-0.32 72.94 0 72.45 0.05L72.45 0.05 71.62-0.98Q71.57-1.03 71.5-2.81 71.43-4.59 71.3-7.45 71.18-10.3 71.08-13.89 70.99-17.48 70.86-21.14 70.74-24.8 70.64-28.17 70.55-31.54 70.5-33.98L70.5-33.98Q70.5-34.18 70.52-34.77 70.55-35.35 70.57-35.96 70.6-36.57 70.62-37.13 70.64-37.7 70.64-37.94ZM77.72-37.94L77.72-37.94Q78.41-37.84 78.92-37.57 79.43-37.3 79.72-36.62L79.72-36.62Q79.72-35.69 79.8-34.06 79.87-32.42 79.94-30.27 80.02-28.13 80.11-25.63 80.21-23.14 80.31-20.61 80.41-18.07 80.48-15.58 80.55-13.09 80.63-10.94 80.7-8.79 80.75-7.13 80.8-5.47 80.85-4.59L80.85-4.59Q80.85-4.49 80.82-4.25 80.8-4 80.77-3.66 80.75-3.32 80.72-3 80.7-2.69 80.7-2.54L80.7-2.54Q80.65-2.25 80.65-1.83 80.65-1.42 80.55-1.03 80.46-0.63 80.24-0.32 80.02 0 79.53 0.05L79.53 0.05 78.7-0.98Q78.65-1.03 78.58-2.81 78.5-4.59 78.38-7.45 78.26-10.3 78.16-13.89 78.06-17.48 77.94-21.14 77.82-24.8 77.72-28.17 77.62-31.54 77.58-33.98L77.58-33.98Q77.58-34.18 77.6-34.77 77.62-35.35 77.65-35.96 77.67-36.57 77.7-37.13 77.72-37.7 77.72-37.94ZM83.92-11.47L83.92-11.47Q83.92-12.94 84.56-14.72 85.19-16.5 86.29-18.04 87.39-19.58 88.78-20.63 90.17-21.68 91.68-21.68L91.68-21.68Q92.51-21.68 93.32-21.34 94.13-21 94.88-20.43 95.64-19.87 96.25-19.17 96.86-18.46 97.2-17.68 97.54-16.89 97.57-16.16 97.59-15.43 97.15-14.89L97.15-14.89 86.85-12.99Q86.65-12.94 86.51-12.52 86.36-12.11 86.26-11.47 86.17-10.84 86.09-10.08 86.02-9.33 85.97-8.62 85.92-7.91 85.92-7.35 85.92-6.79 85.92-6.49L85.92-6.49Q85.92-5.13 86.58-4.27 87.24-3.42 88.27-2.98 89.29-2.54 90.59-2.39 91.88-2.25 93.15-2.25 94.42-2.25 95.54-2.34 96.66-2.44 97.4-2.44L97.4-2.44Q97.4-2.25 97.25-2 97.1-1.76 96.91-1.54 96.71-1.32 96.52-1.15 96.32-0.98 96.27-0.93L96.27-0.93Q95.88-0.83 95.08-0.66 94.27-0.49 93.37-0.34 92.47-0.2 91.68-0.1 90.9 0 90.61 0L90.61 0Q89.1 0.29 87.97-0.05 86.85-0.39 86.07-1.22 85.29-2.05 84.8-3.25 84.31-4.44 84.07-5.81 83.82-7.18 83.8-8.64 83.77-10.11 83.92-11.47ZM91-19.82L91-19.82Q90.56-19.82 89.85-19.36 89.15-18.9 88.53-18.19 87.92-17.48 87.51-16.67 87.09-15.87 87.24-15.28L87.24-15.28Q88.51-15.14 89.88-15.33 91.24-15.53 92.37-15.94 93.49-16.36 94.22-16.92 94.96-17.48 94.93-18.07 94.91-18.65 94-19.12 93.1-19.58 91-19.82ZM106.04-17.72L106.04-17.72Q105.6-17.87 104.84-17.85 104.08-17.82 103.23-17.75 102.38-17.68 101.59-17.58 100.81-17.48 100.28-17.48L100.28-17.48Q100.03-17.48 99.96-18.19 99.88-18.9 99.74-20.12L99.74-20.12 106.62-20.61Q106.77-22.31 106.82-23.05 106.87-23.78 106.84-24.29 106.82-24.8 106.79-25.46 106.77-26.12 106.77-27.54L106.77-27.54Q108.04-27.73 108.7-27.66 109.36-27.59 109.6-27.29 109.85-27 109.82-26.44 109.8-25.88 109.67-25.05 109.55-24.22 109.48-23.05 109.41-21.88 109.55-20.41L109.55-20.41 115.41-20.61 115.41-18.21Q115.02-18.21 114.19-18.16 113.36-18.12 112.41-18.07 111.46-18.02 110.65-17.97 109.85-17.92 109.46-17.77L109.46-17.77Q109.06-16.02 108.63-14.01 108.19-12.01 108.04-10.06 107.89-8.11 108.14-6.42 108.38-4.74 109.36-3.64 110.33-2.54 112.14-2.12 113.95-1.71 116.93-2.39L116.93-2.39Q116.83-1.66 116.36-1.2 115.9-0.73 115.29-0.46 114.68-0.2 114-0.07 113.31 0.05 112.78 0.05L112.78 0.05Q110.29 0.05 108.82-0.85 107.36-1.76 106.62-3.22 105.89-4.69 105.7-6.57 105.5-8.45 105.57-10.4 105.65-12.35 105.84-14.26 106.04-16.16 106.04-17.72Z" opacity="1" transform="matrix(1,0,0,1,0,0)" fill="#000000" class="wordmark-text-0" data-fill-palette-color="quaternary" id="text-0"></path></svg></g></svg></g></svg></g></svg></g><g transform="matrix(1,0,0,1,57.45781516432639,0)"><svg viewBox="0 0 98.24281089850433 97.00519094564106" height="97.00519094564106" width="98.24281089850433"><g><svg xmlns="http://www.w3.org/2000/svg" xmlns:xlink="http://www.w3.org/1999/xlink" version="1.1" x="0" y="0" viewBox="4.133 4.572 90.81200997360575 89.66799999999999" enable-background="new 0 0 100 100" xml:space="preserve" height="97.00519094564106" width="98.24281089850433" class="icon-icon-0" data-fill-palette-color="quaternary" id="icon-0"><path d="M88.077 34.411H83.602L78.778 37.794H86.645C87.018 37.794 87.387 37.841 87.738 37.926 89.9 38.43 91.508 40.387 91.508 42.719V85.812A6.97 6.97 0 0 0 94.945 79.792V41.372C94.944 37.525 91.868 34.411 88.077 34.411" fill="#000000" data-fill-palette-color="quaternary"></path><path d="M86.837 40.688H10.199A1.449 1.449 0 0 1 10.199 37.79H16.102L18.059 36.376 20.779 34.411H11.065C7.236 34.411 4.133 37.525 4.133 41.363V87.284C4.133 91.127 7.236 94.24 11.065 94.24H81.926C85.753 94.24 88.859 91.127 88.859 87.284V42.714A2.03 2.03 0 0 0 86.837 40.688" fill="#000000" data-fill-palette-color="quaternary"></path><g fill="#ffffff" data-fill-palette-color="quaternary"><path fill="none" d="M49.752 26.299C44.218 26.009 39.503 30.242 39.228 35.752A10 10 0 0 0 39.365 37.929H59.162C59.224 37.561 59.268 37.188 59.288 36.807 59.561 31.292 55.29 26.588 49.752 26.299"></path><path d="M39.228 35.752C39.503 30.243 44.219 26.01 49.752 26.299 55.29 26.588 59.56 31.291 59.288 36.806 59.268 37.187 59.224 37.56 59.162 37.928H74.739L84.561 30.636 64.814 4.572 19.895 37.929H39.365A10 10 0 0 1 39.228 35.752" fill="#000000" data-fill-palette-color="quaternary"></path></g><polygon points="40.884,5.019 22.209,33.399 51.353,11.92 " fill="#000000" data-fill-palette-color="quaternary"></polygon></svg></g></svg></g><g></g></svg></g></svg></g></svg></g></svg></g><defs></defs></svg><rect width="342.85155851775386" height="342.85155851775386" fill="none" stroke="none" visibility="hidden"></rect></g></svg></g></svg>